<?xml version="1.0" encoding="UTF-8" standalone="no"?>
<!-- Created with Inkscape (http://www.inkscape.org/) -->

<svg
   width="32"
   height="32"
   viewBox="0 0 32 32"
   version="1.1"
   id="svg1"
   inkscape:export-filename="bitmap.svg"
   inkscape:export-xdpi="72"
   inkscape:export-ydpi="72"
   xmlns:inkscape="http://www.inkscape.org/namespaces/inkscape"
   xmlns:sodipodi="http://sodipodi.sourceforge.net/DTD/sodipodi-0.dtd"
   xmlns="http://www.w3.org/2000/svg"
   xmlns:svg="http://www.w3.org/2000/svg">
  <sodipodi:namedview
     id="namedview1"
     pagecolor="#ffffff"
     bordercolor="#000000"
     borderopacity="0.25"
     inkscape:showpageshadow="2"
     inkscape:pageopacity="0.0"
     inkscape:pagecheckerboard="0"
     inkscape:deskcolor="#d1d1d1"
     inkscape:document-units="px"
     inkscape:zoom="11.261164"
     inkscape:cx="19.225366"
     inkscape:cy="19.225366"
     inkscape:window-width="1707"
     inkscape:window-height="995"
     inkscape:window-x="0"
     inkscape:window-y="0"
     inkscape:window-maximized="1"
     inkscape:current-layer="layer1" />
  <defs
     id="defs1" />
  <g
     inkscape:label="Layer 1"
     inkscape:groupmode="layer"
     id="layer1">
    <g
       id="layer1-5"
       transform="matrix(0.05211591,0,0,0.05211591,2.6583276,2.658326)"
       style="fill:#ffffff;fill-opacity:1;stroke-width:0.997776;stroke-dasharray:none">
      <g
         id="g9"
         transform="matrix(1.1324356,0,0,1.1324356,-60.064426,-33.903526)"
         style="fill:#ffffff;fill-opacity:1;stroke-width:0.881088;stroke-dasharray:none">
        <g
           id="g4"
           style="fill:#ffffff;fill-opacity:1;stroke:none;stroke-width:1.12911;stroke-dasharray:none;stroke-opacity:1"
           transform="matrix(0.78034129,0,0,0.78034129,79.334247,56.23302)">
          <g
             id="g3"
             style="fill:#ffffff;fill-opacity:1;stroke:none;stroke-width:1.12911;stroke-dasharray:none;stroke-opacity:1">
            <g
               id="g2"
               style="fill:#ffffff;fill-opacity:1;stroke:none;stroke-width:1.12911;stroke-dasharray:none;stroke-opacity:1">
              <path
                 d="m 410.854,146.929 c -0.207,-0.443 -0.445,-0.869 -0.714,-1.277 -5.23,-7.961 -11.283,-14.669 -18.067,-20 -9.229,-7.107 -19.374,-13.044 -28.739,-17.785 3.193,-1.095 5.679,-3.724 6.553,-7.06 1.02,-3.885 -0.338,-8.005 -3.464,-10.526 -28.766,-23.191 -63.513,-35.45 -100.488,-35.45 -48.723,0 -94.274,21.847 -124.973,59.939 -2.374,2.946 -2.922,6.965 -1.424,10.438 1.498,3.475 4.797,5.834 8.569,6.13 10.391,0.814 14.334,1.587 15.259,1.794 3.405,1.36 6.646,0.5 9.517,-1.829 0.099,-0.08 8.613,-6.921 20.627,-12.077 -5.073,10.646 -2.623,21.497 -2.308,22.769 0.266,1.077 0.707,2.103 1.303,3.038 1.03,1.615 10.554,15.932 27.356,21.525 6.505,2.149 12.99,2.96 18.711,3.676 0.652,0.082 1.367,0.171 2.108,0.268 -7.71,6.415 -20.72,15.518 -32.253,22.721 -3.08,1.924 -4.906,5.343 -4.79,8.975 l 0.682,21.379 c -6.404,-0.728 -13.731,-0.343 -19.484,3.354 -5.292,3.403 -8.462,9.03 -8.926,15.835 -0.897,12.974 5.798,27.354 17.057,36.635 11.893,9.804 27.214,12.861 43.173,8.598 28.688,-7.766 41.264,-10.447 50.159,-5.61 2.541,1.4 4.649,3.27 6.278,5.119 -6.425,1.304 -14.017,3.988 -24.345,9.18 -2.975,1.474 -5.911,3.119 -9.02,4.861 -14.253,7.988 -28.991,16.247 -50.914,10.537 -4.529,-1.182 -9.276,0.871 -11.52,4.975 -2.246,4.104 -1.409,9.208 2.026,12.383 1.742,1.609 37.008,33.665 80.161,33.665 7.947,0 16.162,-1.088 24.481,-3.651 22.868,-7.087 39.363,-18.861 50.751,-30.011 0.77,2.628 2.582,4.892 5.108,6.196 3.631,1.876 8.031,1.404 11.18,-1.2 1.564,-1.294 15.477,-13.446 21.884,-41.295 2.299,-10.072 3.245,-20.54 3.523,-29.761 2.026,0.805 4.296,0.958 6.479,0.354 3.803,-1.048 6.662,-4.198 7.337,-8.086 0.246,-1.419 6.023,-34.967 4.85,-54.442 -0.044,-0.677 -0.094,-1.34 -0.149,-1.992 1.535,-0.123 3.053,-0.595 4.431,-1.422 3.61,-2.167 5.519,-6.331 4.801,-10.481 -2.374,-13.743 -6.675,-27.332 -12.786,-40.389 z m -21.21,22.476 c -3.538,3.92 -3.733,9.611 -0.172,13.471 0.615,0.984 3.893,6.782 4.728,19.611 0.457,7.599 -0.394,18.226 -1.482,27.703 l -0.246,-0.287 c -2.926,-3.404 -7.734,-4.491 -11.841,-2.682 -4.108,1.807 -6.551,6.092 -6.018,10.549 0.033,0.272 3.192,27.484 -2.12,50.797 -1.086,-0.853 -2.36,-1.494 -3.771,-1.853 -4.793,-1.222 -9.768,1.171 -11.808,5.674 -0.154,0.339 -15.867,34.062 -59.489,47.582 -21.048,6.486 -42.097,0.244 -57.956,-7.69 11.845,-2.923 21.58,-8.379 29.713,-12.937 2.874,-1.611 5.589,-3.133 8.154,-4.403 14.945,-7.513 21.341,-8.143 26.612,-8.143 5.994,0 11.009,-3.843 12.479,-9.561 2.859,-11.118 -8.4,-26.163 -20.339,-32.739 -16.26,-8.84 -33.567,-4.771 -65.249,3.806 -12.035,3.214 -20.182,-0.75 -24.9,-4.639 -7.169,-5.909 -10.044,-14.245 -9.681,-19.498 0.006,-0.096 0.014,-0.18 0.023,-0.254 2.504,-0.833 9.612,0.168 15.063,2.188 3.185,1.199 6.761,0.729 9.53,-1.253 2.768,-1.983 4.364,-5.215 4.256,-8.617 l -0.921,-28.885 c 4.496,-2.919 11.431,-7.53 18.282,-12.509 18.967,-13.786 28.274,-23.18 23.188,-33.254 -4.493,-9.072 -14.702,-10.35 -24.575,-11.585 -5.029,-0.629 -10.229,-1.28 -14.822,-2.798 -7.666,-2.552 -13.239,-8.784 -15.488,-11.652 -0.18,-2.161 -0.054,-5.537 1.483,-8.219 2.38,-4.186 12.062,-12.325 17.852,-16.506 3.428,-2.47 4.977,-6.799 3.896,-10.882 -1.081,-4.085 -4.568,-7.08 -8.768,-7.532 -1.284,-0.14 -13.081,-1.17 -32,5.097 -2.445,0.82 -4.803,1.721 -7.059,2.669 23.162,-16.115 50.811,-24.943 79.734,-24.943 23.91,0 46.753,5.874 67.194,17.15 l -7.824,1.309 c -4.656,0.779 -8.17,4.653 -8.492,9.364 -0.321,4.711 2.631,9.027 7.139,10.432 0.318,0.098 32.01,10.105 55.598,28.267 4.805,3.776 9.224,8.651 13.143,14.498 1.517,3.285 2.902,6.604 4.155,9.952 -2.684,0.055 -5.316,1.115 -7.201,3.202 z"
                 id="path1"
                 style="fill:#ffffff;fill-opacity:1;stroke:none;stroke-width:1.12911;stroke-dasharray:none;stroke-opacity:1" />
              <path
                 d="m 510.44,179.153 c -0.551,-4.544 -4.059,-8.165 -8.583,-8.857 -2.674,-0.41 -5.318,0.265 -7.421,1.748 -2.236,-14.292 -5.25,-30.436 -8.872,-42.381 -8.365,-27.893 -26.2,-46.039 -26.954,-46.798 -3.201,-3.218 -8.143,-3.931 -12.126,-1.753 -3.935,2.154 -5.996,6.622 -5.093,11.004 -9.253,-8.182 -20.105,-16.361 -30.964,-21.377 -3.72,-1.798 -7.374,-3.425 -10.844,-4.943 -37.135,-32.657 -84.594,-50.624 -133.827,-50.624 -35.452,0 -70.349,9.298 -100.92,26.89 C 138.718,57.091 116.122,77.9 98.913,102.667 97.273,100.656 95.707,98.219 94.58,95.36 94.566,95.324 94.551,95.29 94.537,95.254 89.777,83.57 87.314,70.32 87.292,70.193 86.619,66.501 83.971,63.476 80.401,62.32 c -3.573,-1.156 -7.49,-0.257 -10.199,2.34 -29.8,28.56 -29.273,71.607 -28.095,86.319 -4.876,5.416 -14.304,16.592 -23.759,31.72 -13.985,22.364 -18.123,60.738 -18.293,62.361 -0.453,4.347 1.913,8.5 5.885,10.325 2.014,0.926 4.213,1.149 6.285,0.729 -2.945,19.992 -1.954,46.061 -1.906,47.262 0.188,4.693 3.555,8.652 8.158,9.588 2.886,0.586 5.789,-0.109 8.047,-1.757 7.213,30.791 25.762,78.539 73.455,122.931 39.755,37.02 95.053,59.77 151.718,62.42 3.84,0.18 7.674,0.269 11.498,0.269 26.19,0 51.965,-4.204 76.78,-12.535 30.547,-10.257 58.972,-26.589 84.488,-48.548 24.356,-20.984 44.032,-47.63 58.483,-79.2 11.458,-25.032 19.665,-53.192 24.393,-83.695 8.016,-51.735 3.305,-92.007 3.101,-93.696 z m -23.26,90.573 c -6.94,44.783 -25.765,107.257 -76.029,150.561 -99.954,86.026 -227.767,63.651 -297.274,-1.077 -36.739,-34.198 -54.224,-70.618 -62.422,-95.148 -8.923,-26.697 -9.118,-45.557 -9.119,-45.719 0,-4.773 -3.312,-8.908 -7.968,-9.952 -0.746,-0.167 -1.493,-0.248 -2.234,-0.248 -0.254,0 -0.506,0.01 -0.758,0.03 0.402,-4.816 0.98,-9.508 1.805,-13.597 3.451,-17.516 8.049,-27.017 8.078,-27.075 2.261,-4.522 0.869,-10.017 -3.273,-12.917 -3.333,-2.333 -7.64,-2.418 -11.003,-0.447 2.209,-7.456 5.056,-14.862 8.659,-20.625 12.042,-19.271 24.22,-31.682 24.334,-31.798 2.267,-2.286 3.322,-5.507 2.844,-8.691 -0.058,-0.383 -4.551,-32.093 9.817,-58.288 0.884,2.686 1.879,5.448 2.986,8.169 5.332,13.466 15.749,21.121 19.984,23.79 2.31,1.455 5.11,1.923 7.764,1.3 2.658,-0.622 4.955,-2.286 6.377,-4.615 33.567,-54.982 91.886,-87.807 156.004,-87.807 44.762,0 87.901,16.525 121.472,46.532 0.809,0.723 1.728,1.313 2.722,1.746 3.746,1.632 7.734,3.385 11.681,5.295 0.059,0.029 0.118,0.056 0.178,0.084 23.473,10.803 49.165,41.806 49.419,42.114 2.996,3.648 8.107,4.759 12.345,2.695 0.595,-0.29 1.149,-0.631 1.662,-1.016 0.276,0.831 0.545,1.677 0.801,2.531 7.459,24.607 12.461,71.198 12.511,71.666 0.485,4.578 3.98,8.264 8.526,8.993 1.533,0.246 3.061,0.135 4.483,-0.282 -0.155,14.811 -1.213,33.419 -4.372,53.796 z"
                 id="path2"
                 style="fill:#ffffff;fill-opacity:1;stroke:none;stroke-width:1.12911;stroke-dasharray:none;stroke-opacity:1" />
            </g>
          </g>
        </g>
        <g
           id="g6"
           style="fill:#ffffff;fill-opacity:1;stroke:none;stroke-width:1.12911;stroke-dasharray:none;stroke-opacity:1"
           transform="matrix(0.78034129,0,0,0.78034129,79.334247,56.23302)">
          <g
             id="g5"
             style="fill:#ffffff;fill-opacity:1;stroke:none;stroke-width:1.12911;stroke-dasharray:none;stroke-opacity:1">
            <path
               d="m 400.489,393.855 c -3.674,-4.268 -10.113,-4.751 -14.383,-1.077 -2.261,1.947 -4.586,3.864 -6.909,5.697 -4.421,3.49 -5.177,9.903 -1.687,14.324 2.012,2.55 4.997,3.881 8.012,3.881 2.212,0 4.441,-0.717 6.311,-2.194 2.549,-2.011 5.098,-4.113 7.579,-6.248 4.27,-3.674 4.752,-10.114 1.077,-14.383 z"
               id="path4"
               style="fill:#ffffff;fill-opacity:1;stroke:none;stroke-width:1.12911;stroke-dasharray:none;stroke-opacity:1" />
          </g>
        </g>
        <g
           id="g8"
           style="fill:#ffffff;fill-opacity:1;stroke:none;stroke-width:1.12911;stroke-dasharray:none;stroke-opacity:1"
           transform="matrix(0.78034129,0,0,0.78034129,79.334247,56.23302)">
          <g
             id="g7"
             style="fill:#ffffff;fill-opacity:1;stroke:none;stroke-width:1.12911;stroke-dasharray:none;stroke-opacity:1">
            <path
               d="m 355.956,426.338 c -2.437,-5.078 -8.527,-7.218 -13.607,-4.783 -79.126,37.967 -160.175,12.468 -205.399,-29.645 -4.119,-3.838 -10.574,-3.609 -14.414,0.513 -3.839,4.122 -3.608,10.575 0.514,14.414 27.873,25.957 64.917,43.896 104.308,50.512 11.58,1.946 23.18,2.911 34.723,2.911 30.747,0 61.042,-6.856 89.093,-20.314 5.078,-2.437 7.22,-8.53 4.782,-13.608 z"
               id="path6"
               style="fill:#ffffff;fill-opacity:1;stroke:none;stroke-width:1.12911;stroke-dasharray:none;stroke-opacity:1" />
          </g>
        </g>
      </g>
    </g>
  </g>
</svg>
